<svg id="Capa_1" data-name="Capa 1" xmlns="http://www.w3.org/2000/svg" viewBox="0 0 512 512">
    <defs>
        <style>
            .cls-1,.cls-2{fill:none;stroke-miterlimit:10;stroke-width:5px;}.cls-1{stroke:#f4b207;}.cls-2{stroke:#00938f;}
        </style>
    </defs>
    <g id="Capa_2" data-name="Capa 2">
        <path class="cls-1"
              d="M445.8,99.5A245.07,245.07,0,0,1,502,256c0,135.9-110.1,246-246,246A244.83,244.83,0,0,1,96.6,443.3"/>
        <path class="cls-2"
              d="M67.9,414.5A245,245,0,0,1,10,256C10,120.1,120.1,10,256,10A245.07,245.07,0,0,1,412.5,66.2"/>
        <path d="M430.1,89.1a7.05,7.05,0,0,1-5-12l.1-.1a7,7,0,0,1,9.9,9.9l-.1.1A6.31,6.31,0,0,1,430.1,89.1Z"/>
        <path d="M82,437.2a7.05,7.05,0,0,1-5-12l.1-.1A7,7,0,1,1,87,435l-.1.1A6.66,6.66,0,0,1,82,437.2Z"/>
    </g>
    <path
        d="M341.1,405.11h-160a20,20,0,0,1-20-20V233.43a20,20,0,0,1,20-20h160a20,20,0,0,1,20,20V385.1A20,20,0,0,1,341.1,405.11Zm-160-185.36a13.69,13.69,0,0,0-13.68,13.68V385.1a13.7,13.7,0,0,0,13.68,13.68h160a13.7,13.7,0,0,0,13.68-13.68V233.43a13.69,13.69,0,0,0-13.68-13.68Z"/>
    <path
        d="M239.09,386.76A13.89,13.89,0,1,1,253,372.87,13.9,13.9,0,0,1,239.09,386.76Zm0-21.45a7.56,7.56,0,1,0,7.56,7.56A7.56,7.56,0,0,0,239.09,365.31Z"/>
    <path
        d="M282.77,386.76a13.89,13.89,0,1,1,13.89-13.89A13.9,13.9,0,0,1,282.77,386.76Zm0-21.45a7.56,7.56,0,1,0,7.55,7.56A7.57,7.57,0,0,0,282.77,365.31Z"/>
    <path
        d="M326.44,386.76a13.89,13.89,0,1,1,13.89-13.89A13.9,13.9,0,0,1,326.44,386.76Zm0-21.45a7.56,7.56,0,1,0,7.56,7.56A7.56,7.56,0,0,0,326.44,365.31Z"/>
    <path
        d="M189.39,253.45a13.89,13.89,0,1,1,13.89-13.89A13.9,13.9,0,0,1,189.39,253.45Zm0-21.44a7.56,7.56,0,1,0,7.56,7.55A7.56,7.56,0,0,0,189.39,232Z"/>
    <path
        d="M218.78,253.45a13.89,13.89,0,1,1,13.89-13.89A13.9,13.9,0,0,1,218.78,253.45Zm0-21.44a7.56,7.56,0,1,0,7.56,7.55A7.56,7.56,0,0,0,218.78,232Z"/>
    <path
        d="M251.73,253.45a13.89,13.89,0,1,1,13.89-13.89A13.9,13.9,0,0,1,251.73,253.45Zm0-21.44a7.56,7.56,0,1,0,7.56,7.55A7.56,7.56,0,0,0,251.73,232Z"/>
    <path d="M253,349H181.41V277.38H253Zm-65.24-6.33h58.91V283.72H187.74Z"/>
    <rect x="262.46" y="277.38" width="74.71" height="6.33"/>
    <rect x="262.46" y="294.83" width="74.71" height="6.33"/>
    <rect x="262.46" y="312.28" width="74.71" height="6.33"/>
    <rect x="262.46" y="329.72" width="74.71" height="6.33"/>
    <rect x="262.46" y="347.17" width="74.71" height="6.33"/>
    <path
        d="M354.78,261.56V233.43a13.69,13.69,0,0,0-13.68-13.68h-160a13.69,13.69,0,0,0-13.68,13.68v27.21l-4.27-1.58a56.61,56.61,0,1,1,44-104.18A67.89,67.89,0,0,1,340,174.81c0,1.74-.09,3.53-.26,5.46a38.52,38.52,0,0,1,4.77-.29,41.31,41.31,0,0,1,14.59,80ZM181.07,213.41h160a20,20,0,0,1,20,20v18.63a35,35,0,0,0-24.36-64.86l-4.48,1,.65-4.55a61,61,0,0,0,.72-8.85,61.56,61.56,0,0,0-121.37-14.57l-1,4.08-3.65-2.07a50.28,50.28,0,1,0-46.57,89.05V233.43A20,20,0,0,1,181.07,213.41Z"/>
</svg>
