<?xml version="1.0" encoding="utf-8"?>
<!-- Generator: Adobe Illustrator 23.0.2, SVG export Plug-In . SVG Version: 6.00 Build 0)  -->
<svg version="1.1" xmlns="http://www.w3.org/2000/svg" x="0px" y="0px"
     viewBox="0 0 512 512" style="enable-background:new 0 0 512 512;" xml:space="preserve">
<style type="text/css">
	.st0{fill:none;stroke:#F4B207;stroke-width:5;stroke-miterlimit:10;}
	.st1{fill:none;stroke:#00938F;stroke-width:5;stroke-miterlimit:10;}
	.st2{fill:none;stroke:#000000;stroke-width:5;stroke-miterlimit:10;}
	.st3{fill:#84B0B5;}
	.st4{fill:#DCF3F4;}
	.st5{fill:#B0CDCF;}
	.st6{fill:#25739E;}
	.st7{fill:#216486;}
	.st8{fill:#A8D2D7;}
	.st9{fill:#FFD347;}
	.st10{fill:#FFBE31;}
	.st11{fill:#A8D3D6;}
	.st12{fill:#84AFB4;}
	.st13{fill:#E0B07B;}
	.st14{opacity:0.9;fill:#F4B207;}
	.st15{opacity:0.9;fill:#00938F;}
	.st16{fill:#4FD255;}
	.st17{fill:#2CB855;}
	.st18{fill:#67D5FF;}
	.st19{fill:#4DCEFD;}
	.st20{fill:#FEA084;}
	.st21{fill:#FFD2BA;}
	.st22{fill:#FFBC99;}
</style>
    <g id="Capa_2">
	<path class="st0"
          d="M445.8,99.5C480.9,142,502,196.6,502,256c0,135.9-110.1,246-246,246c-60.8,0-116.5-22.1-159.4-58.7"/>
        <path class="st1"
              d="M67.9,414.5C31.8,371.7,10,316.4,10,256C10,120.1,120.1,10,256,10c59.4,0,114,21.1,156.5,56.2"/>
        <path d="M430.1,89.1c-1.8,0-3.6-0.7-5-2.1c-2.7-2.7-2.7-7.2,0-9.9l0.1-0.1c2.7-2.7,7.2-2.7,9.9,0c2.7,2.7,2.7,7.2,0,9.9l-0.1,0.1
		C433.7,88.5,431.9,89.1,430.1,89.1z"/>
        <path d="M82,437.2c-1.8,0-3.6-0.7-5-2.1c-2.7-2.7-2.7-7.2,0-9.9l0.1-0.1c2.7-2.7,7.2-2.7,9.9,0c2.7,2.7,2.7,7.2,0,9.9l-0.1,0.1
		C85.6,436.5,83.8,437.2,82,437.2z"/>
</g>
    <g id="Capa_1">
	<g>
		<g>
			<rect x="132.2" y="139.1" class="st9" width="27.5" height="20.6"/>
            <rect x="352.3" y="139.1" class="st9" width="27.5" height="20.6"/>
            <rect x="132.2" y="221.6" class="st9" width="27.5" height="20.6"/>
            <rect x="352.3" y="221.6" class="st9" width="27.5" height="20.6"/>
		</g>
        <rect x="159.7" y="400.5" class="st11" width="192.6" height="20.6"/>
        <rect x="331.7" y="400.5" class="st12" width="20.6" height="20.6"/>
        <path d="M394.9,196.2l-92.7-26.5v-46.3h58.8v10.7h-8.8c-2.8,0-5,2.2-5,5v20.6c0,2.8,2.2,5,5,5h27.5c2.8,0,5-2.2,5-5v-20.6
			c0-2.8-2.2-5-5-5H371v-10.7h22.5c2.5,0,4.6-1.8,4.9-4.3c0.3-2.5-1.2-4.8-3.6-5.5l-96.3-27.5c0,0-0.1,0-0.1,0
			c-0.1,0-0.2-0.1-0.3-0.1c-0.1,0-0.2,0-0.2,0c-0.1,0-0.2,0-0.3,0c-0.1,0-0.2,0-0.3,0c-0.1,0-0.1,0-0.2,0h-82.5c-0.1,0-0.1,0-0.2,0
			c-0.1,0-0.2,0-0.3,0c-0.1,0-0.2,0-0.2,0c-0.1,0-0.2,0-0.2,0c-0.1,0-0.2,0-0.3,0.1c0,0-0.1,0-0.1,0l-96.3,27.5
			c-2.4,0.7-3.9,3-3.6,5.5c0.3,2.5,2.5,4.3,4.9,4.3H141v10.7h-8.8c-2.8,0-5,2.2-5,5v20.6c0,2.8,2.2,5,5,5h27.5c2.8,0,5-2.2,5-5
			v-20.6c0-2.8-2.2-5-5-5h-8.8v-10.7H184c2.8,0,5-2.2,5-5c0-2.8-2.2-5-5-5h-29.9l55.7-15.9v15.9h-3.5c-2.8,0-5,2.2-5,5
			c0,2.8,2.2,5,5,5h3.5v46.3l-92.7,26.5c-2.4,0.7-3.9,3-3.6,5.5c0.3,2.5,2.5,4.3,4.9,4.3H141v10.7h-8.8c-2.8,0-5,2.2-5,5v20.6
			c0,2.8,2.2,5,5,5h27.5c2.8,0,5-2.2,5-5v-20.6c0-2.8-2.2-5-5-5h-8.8V206h58.8v49.3l-20.4,71.4c0,0,0,0,0,0l0,0.1c0,0,0,0,0,0l0,0
			c0,0,0,0,0,0l-19.6,68.5h-10c-2.8,0-5,2.2-5,5v15.6h-10.2c-2.8,0-5,2.2-5,5c0,2.8,2.2,5,5,5h15.2h192.6h15.2c2.8,0,5-2.2,5-5
			c0-2.8-2.2-5-5-5h-10.2v-15.6c0-2.8-2.2-5-5-5h-10l-19.6-68.5c0,0,0,0,0,0l0-0.2c0,0,0,0,0,0l-20.4-71.4V206h58.8v10.7h-8.8
			c-2.8,0-5,2.2-5,5v20.6c0,2.8,2.2,5,5,5h27.5c2.8,0,5-2.2,5-5v-20.6c0-2.8-2.2-5-5-5H371V206h22.5c2.5,0,4.6-1.8,4.9-4.3
			C398.9,199.2,397.3,196.9,394.9,196.2z M374.8,154.7h-17.5v-10.7h17.5V154.7z M154.7,154.7h-17.5v-10.7h17.5L154.7,154.7
			L154.7,154.7z M154.7,237.3h-17.5v-10.7h17.5L154.7,237.3L154.7,237.3z M374.8,237.3h-17.5v-10.7h17.5V237.3z M217.6,264.1
			l29.7,20.8l-44.5,31.2L217.6,264.1z M230.6,261h50.9L256,278.8L230.6,261z M209.9,323.2L256,291l46.1,32.3H209.9z M296.8,333.2
			L256,353.6l-40.8-20.4L296.8,333.2L296.8,333.2z M197.2,335.4l47.6,23.8l-63.5,31.7L197.2,335.4z M256,364.8l61.4,30.7H194.6
			L256,364.8z M267.2,359.2l47.6-23.8l15.9,55.5L267.2,359.2z M264.7,284.9l29.7-20.8l14.8,52L264.7,284.9z M219.7,251v-40.7
			l61.1,40.7H219.7z M219.7,127.8l61.1,40.7h-61.1V127.8z M219.7,178.4h72.6V196h-72.6V178.4z M292.3,164.1l-61.1-40.7h61.1V164.1z
			 M302.3,113.4V97.5l55.7,15.9L302.3,113.4L302.3,113.4z M292.3,95.9v17.5h-72.6V95.9H292.3z M209.7,180.1V196h-55.7L209.7,180.1z
			 M347.3,416.1H164.7v-10.7h8.8c0,0,0,0,0,0c0,0,0,0,0,0h0.1c0,0,0,0,0,0h164.9c0,0,0,0,0,0h0h0c0,0,0,0,0,0h8.8V416.1L347.3,416.1
			z M292.3,246.7L231.2,206h61.1V246.7z M302.3,196v-15.9l55.7,15.9L302.3,196L302.3,196z"/>
	</g>
</g>
</svg>
