<svg id="Capa_1" data-name="Capa 1" xmlns="http://www.w3.org/2000/svg" viewBox="0 0 512 512">
    <defs>
        <style>
            .cls-1,.cls-2{fill:none;stroke-miterlimit:10;stroke-width:5px;}.cls-1{stroke:#f4b207;}.cls-2{stroke:#00938f;}
        </style>
    </defs>
    <g id="Capa_2" data-name="Capa 2">
        <path class="cls-1"
              d="M445.8,99.5A245.07,245.07,0,0,1,502,256c0,135.9-110.1,246-246,246A244.83,244.83,0,0,1,96.6,443.3"/>
        <path class="cls-2"
              d="M67.9,414.5A245,245,0,0,1,10,256C10,120.1,120.1,10,256,10A245.07,245.07,0,0,1,412.5,66.2"/>
        <path d="M430.1,89.1a7.05,7.05,0,0,1-5-12l.1-.1a7,7,0,0,1,9.9,9.9l-.1.1A6.31,6.31,0,0,1,430.1,89.1Z"/>
        <path d="M82,437.2a7.05,7.05,0,0,1-5-12l.1-.1A7,7,0,1,1,87,435l-.1.1A6.66,6.66,0,0,1,82,437.2Z"/>
    </g>
    <path
        d="M237.29,397.58H365.14a16.1,16.1,0,0,0,16.08-16.08v-251a16.1,16.1,0,0,0-16.08-16.08H237.29a16.1,16.1,0,0,0-16.08,16.08v99.79h7.93V130.5a8.15,8.15,0,0,1,8.15-8.14H365.14a8.16,8.16,0,0,1,8.15,8.14v251a8.16,8.16,0,0,1-8.15,8.14H237.29a8.15,8.15,0,0,1-8.15-8.14V244.74h-7.93V381.5A16.1,16.1,0,0,0,237.29,397.58Z"/>
    <rect x="225.17" y="148.99" width="152.08" height="7.94"/>
    <rect x="295.52" y="218.2" width="7.94" height="37.8"/>
    <path
        d="M142.57,237.42a11.11,11.11,0,0,1,11.1-11.1H303.45v22.2H153.67A11.11,11.11,0,0,1,142.57,237.42Zm153-3.16H153.67a3.16,3.16,0,1,0,0,6.32H295.52Z"/>
    <path
        d="M133,214.74a9.51,9.51,0,0,1,7.28-15.64h43.07L213,234.26H149.45Zm46.66-7.7H140.31a1.58,1.58,0,0,0-1.21,2.59l14,16.69h42.77Z"/>
    <path
        d="M131.68,270.24A9.42,9.42,0,0,1,133,260.1l16.42-19.52H213l-29.58,35.16H140.31A9.44,9.44,0,0,1,131.68,270.24Zm64.23-21.72H153.14l-14,16.69a1.51,1.51,0,0,0-.22,1.68,1.5,1.5,0,0,0,1.43.91h39.38Z"/>
</svg>
