<svg id="Capa_1" data-name="Capa 1" xmlns="http://www.w3.org/2000/svg" viewBox="0 0 512 512">
    <defs>
        <style>
            .cls-1,.cls-2{fill:none;stroke-miterlimit:10;stroke-width:5px;}.cls-1{stroke:#f4b207;}.cls-2{stroke:#00938f;}.cls-3{fill:#84afb4;}.cls-4{fill:#ffd347;}
        </style>
    </defs>
    <g id="Capa_2" data-name="Capa 2">
        <path class="cls-1"
              d="M445.8,99.5A245.07,245.07,0,0,1,502,256c0,135.9-110.1,246-246,246A244.83,244.83,0,0,1,96.6,443.3"/>
        <path class="cls-2"
              d="M67.9,414.5A245,245,0,0,1,10,256C10,120.1,120.1,10,256,10A245.07,245.07,0,0,1,412.5,66.2"/>
        <path d="M430.1,89.1a7.05,7.05,0,0,1-5-12l.1-.1a7,7,0,0,1,9.9,9.9l-.1.1A6.31,6.31,0,0,1,430.1,89.1Z"/>
        <path d="M82,437.2a7.05,7.05,0,0,1-5-12l.1-.1A7,7,0,1,1,87,435l-.1.1A6.66,6.66,0,0,1,82,437.2Z"/>
    </g>
    <g id="AeBr28">
        <path
            d="M195.7,115.53c-.33,2.74-.51,5.14-.91,7.5-.58,3.44-1.35,6.84-2,10.27-.27,1.5-1,2-2.59,2-9.17-.09-18.35,0-27.53,0h-2.46V400.17H348.55c2.68,0,2.69,0,2.69-2.69V135.37c-.89,0-1.63-.12-2.37-.12-9,0-18-.06-27,0-1.68,0-2.42-.54-2.7-2.11-1-5.73-2.09-11.45-3.16-17.24a9.6,9.6,0,0,1,1.59-.37c10.32,0,20.67-.37,30.95.28,11.42.72,21.23,7.69,24.64,18.16a23.46,23.46,0,0,1,1,7.14q.09,46.17,0,92.34,0,21.78,0,43.55v93.64c0,8.08-.18,16.17,0,24.26.3,10.87-7.41,20.16-16.71,24.08a35,35,0,0,1-13.78,2.62c-20.27-.06-40.53,0-60.8,0H235.62c-22.73,0-45.47,0-68.2,0-9.84,0-18.15-3.58-24.37-11.38a22.72,22.72,0,0,1-5.18-14.45q0-37,0-73.93V239.88c0-32.24.34-64.48-.15-96.71-.22-14.79,10.54-24.8,23-27a43.6,43.6,0,0,1,7.22-.6c8.15-.08,16.31,0,24.47,0Z"/>
        <path
            d="M273.86,106.44h2.77c9.81,0,19.62,0,29.43,0,1.69,0,2.26.41,2.42,2.19.61,7,1.15,14.1,2.29,21.06.76,4.6,2.49,9,3.79,13.56l3,10.21H192.69c5.51-15.19,8.95-30.69,9.25-47h2.63c9.94,0,19.87,0,29.81,0,1.67,0,2.38-.29,2.7-2.16,1.37-8.07,9-13.87,18.09-14,8.25-.07,14.86,4.36,17.73,12A33.82,33.82,0,0,1,273.86,106.44Zm-18.54-8.06-.2-.51c-2.27.89-4.81,1.38-6.74,2.74-3.91,2.76-5.29,7.48-1.87,11.75,4.31,5.39,13.18,5.45,17.47,0a7.59,7.59,0,0,0,1.23-7.87C263.76,100.8,259.88,98.41,255.32,98.38Z"/>
        <path d="M332,241.05H214.87V228.26H332Z"/>
        <path d="M214.88,330.46V317.59H321.29v12.87Z"/>
        <path
            d="M215.68,201.33V188.49c.67,0,1.28-.1,1.9-.1h91.76c3.37,0,6.75,0,10.12,0,1.36,0,2,.4,1.93,1.83-.05,3.67,0,7.35,0,11.14Z"/>
        <path d="M313,274.54v12.79H214.91V274.54Z"/>
        <path d="M305.5,376H214.88V363H305.5Z"/>
        <path class="cls-3"
              d="M174.13,234.85a10.22,10.22,0,0,1,10.15-10.27A10.4,10.4,0,0,1,194.76,235a10.51,10.51,0,0,1-10.33,10.21A10.25,10.25,0,0,1,174.13,234.85Z"/>
        <path class="cls-3" d="M174.14,324a10.31,10.31,0,1,1,10.28,10.32A10.24,10.24,0,0,1,174.14,324Z"/>
        <path class="cls-3" d="M184.22,270.85a10.31,10.31,0,1,1,.46,20.61,10.31,10.31,0,1,1-.46-20.61Z"/>
        <path class="cls-3"
              d="M174.12,369.86a10.23,10.23,0,0,1,10.3-10.28,10.3,10.3,0,1,1,0,20.6A10.26,10.26,0,0,1,174.12,369.86Z"/>
        <path class="cls-3" d="M184.47,184.92a10.3,10.3,0,1,1-10.36,10.29A10.45,10.45,0,0,1,184.47,184.92Z"/>
        <path class="cls-4"
              d="M255.32,98.38c4.56,0,8.44,2.42,9.89,6.16a7.59,7.59,0,0,1-1.23,7.87c-4.29,5.4-13.16,5.34-17.47,0-3.42-4.27-2-9,1.87-11.75,1.93-1.36,4.47-1.85,6.74-2.74Z"/>
    </g>
</svg>
