<svg id="Capa_1" data-name="Capa 1" xmlns="http://www.w3.org/2000/svg" viewBox="0 0 512 512">
    <defs>
        <style>
            .cls-1,.cls-2{fill:none;stroke-miterlimit:10;stroke-width:5px;}.cls-1{stroke:#f4b207;}.cls-2{stroke:#00938f;}
        </style>
    </defs>
    <g id="Capa_2" data-name="Capa 2">
        <path class="cls-1"
              d="M445.8,99.5A245.07,245.07,0,0,1,502,256c0,135.9-110.1,246-246,246A244.83,244.83,0,0,1,96.6,443.3"/>
        <path class="cls-2"
              d="M67.9,414.5A245,245,0,0,1,10,256C10,120.1,120.1,10,256,10A245.07,245.07,0,0,1,412.5,66.2"/>
        <path d="M430.1,89.1a7.05,7.05,0,0,1-5-12l.1-.1a7,7,0,0,1,9.9,9.9l-.1.1A6.31,6.31,0,0,1,430.1,89.1Z"/>
        <path d="M82,437.2a7.05,7.05,0,0,1-5-12l.1-.1A7,7,0,1,1,87,435l-.1.1A6.66,6.66,0,0,1,82,437.2Z"/>
    </g>
    <g id="SNuPtB">
        <path
            d="M386.54,244.58a133.45,133.45,0,0,0-53.19-78.83c-2-1.37-3.31-3-3-5.57a5,5,0,0,1,3.38-4.17,5.2,5.2,0,0,1,5.45,1.17c6.09,5,12.43,9.78,18.1,15.22a137.91,137.91,0,0,1,30.21,43.17,145.21,145.21,0,0,1,3.83,110.34,145,145,0,0,1-92.78,87.38,145.53,145.53,0,0,1-31.84,5.85,143.64,143.64,0,0,1-123.32-53.6,140.74,140.74,0,0,1-27.56-55.67,142.76,142.76,0,0,1,2-76.52c8.25-27.31,23.55-50.14,45.3-68.62,2-1.72,4.1-3.38,6.23-5,2.66-2,5.72-1.72,7.48.52,2,2.48,1.52,5.59-1.23,7.7A140.73,140.73,0,0,0,149,194.53a130.39,130.39,0,0,0-19.55,36.62c-1.31,3.8-2.39,7.69-3.73,12.06,3.65-3.41,6.71-6.54,10-9.34a98.87,98.87,0,0,1,25.19-15.59c8.14-3.43,16.48-6.42,24.71-9.65a2.68,2.68,0,0,0,1.3-1.39q4.27-11.12,8.42-22.28c1.32-3.53,4.28-5.19,7.31-4.05,2.4.92,4.06,4.26,2.38,7.79-2.28,4.77-4,9.82-5.93,14.75a8.81,8.81,0,0,0-.31,1.26l34.45-5.3a24.09,24.09,0,0,1,3.26-11.34A22.81,22.81,0,0,1,261,177.58a22.55,22.55,0,0,1,17.68,20.14c.15,1.89.84,2.27,2.59,2.53,9.73,1.45,19.43,3.08,29.14,4.66.32.05.64.14,1.47.33-1.34-3.57-2.52-6.79-3.76-10-.55-1.43-1.2-2.82-1.8-4.23-1.3-3.13-.35-5.94,2.45-7.26a5,5,0,0,1,7,3c2.56,6.56,4.93,13.19,7.26,19.83a3.33,3.33,0,0,0,2.48,2.38c18.21,5.64,35.43,13.23,50.11,25.73C379.57,238,383.29,241.62,386.54,244.58ZM187.87,282.07c-.08.51-.15.71-.15.91a237,237,0,0,0,7,53,2.35,2.35,0,0,0,1.52,1.36A235.15,235.15,0,0,0,234,343.5c5.21.38,10.42.59,15.81.88V282.07Zm134.46,0h-61.9v62.14c.5,0,.84.1,1.18.09a232.06,232.06,0,0,0,52.19-7,3.26,3.26,0,0,0,1.84-2.07,219.45,219.45,0,0,0,6.67-43.39C322.49,288.64,322.33,285.44,322.33,282.09ZM250,271.54v-8.16c0-13.14,0-26.28.07-39.41a2.5,2.5,0,0,0-2-2.84,20.9,20.9,0,0,1-11.38-9.39,2.76,2.76,0,0,0-3-1.56,249.44,249.44,0,0,0-35.11,5.62c-2.84.64-3.87,1.95-4.51,4.65a243.05,243.05,0,0,0-5.87,38.67c-.29,4.07-.05,8.19-.05,12.42Zm10.29,0c.78.07,1.32.16,1.87.16q29.25,0,58.49,0c1.76,0,2.13-.61,2-2.2-.45-5.92-.66-11.86-1.21-17.77a210.16,210.16,0,0,0-5.87-33.58,2.83,2.83,0,0,0-1.69-1.69,220.86,220.86,0,0,0-35.66-6.14,2.43,2.43,0,0,0-2.67,1.37,21.51,21.51,0,0,1-13.14,10c-1.9.51-2.14,1.42-2.14,3.07.05,11.39,0,22.78,0,34.17Zm125,37.91c-1.42,1.53-2.78,3.11-4.26,4.58a108.47,108.47,0,0,1-29.27,20.3A191.79,191.79,0,0,1,325,345a3.57,3.57,0,0,0-1.77,2c-2.88,7.32-5.5,14.74-8.53,22a106.4,106.4,0,0,1-16.38,27.14c-2.34,2.82-4.89,5.47-7.76,8.65A133.2,133.2,0,0,0,345,375.39,130.22,130.22,0,0,0,385.3,309.43Zm-167,94.65.5-.44c-.41-.45-.86-.88-1.24-1.36-4.37-5.51-9.11-10.79-13-16.61-7.77-11.55-12.87-24.4-17-37.64a4.83,4.83,0,0,0-3.64-3.7,147.64,147.64,0,0,1-25.87-10.15c-11-5.54-21.16-12.22-29.69-21.19a5.72,5.72,0,0,0-.85-.61C142.19,358.56,172.58,389,218.32,404.08Zm-19.69-55.5c.14.55.19.83.27,1.08a139,139,0,0,0,15.44,32.18c6.55,9.82,14.35,18.36,25.14,23.68a28.53,28.53,0,0,0,10.37,3.16c.05-.5.12-.84.12-1.18,0-17,0-34.08.07-51.12,0-1.55-.65-1.82-2-1.83a231,231,0,0,1-35.41-3.28C208.05,350.51,203.5,349.52,198.63,348.58Zm61.75,60.05a4.38,4.38,0,0,0,.92,0c1-.2,2.07-.37,3.07-.66,10.12-2.9,17.95-9.17,24.66-17,9.84-11.44,16.41-24.72,21.51-38.8.41-1.13.74-2.29,1.21-3.72a251.35,251.35,0,0,1-51.37,6.14ZM387.16,282.09H333.05a257.06,257.06,0,0,1-6.18,51.2c.79-.18,1.2-.23,1.58-.36A137,137,0,0,0,359,318.45c9-5.88,17.12-12.79,22.81-22.13A37.39,37.39,0,0,0,387.16,282.09Zm-204,51.37c-1.43-8.78-3.09-17.2-4.11-25.69s-1.41-17.06-2.07-25.59H123.21c.35,1.59.56,3,1,4.28,3.09,10.37,9.71,18.27,17.78,25.08,11.26,9.48,24.38,15.62,38,20.83C181,332.78,182.13,333.1,183.2,333.46Zm144-113.16c1.37,8.54,3,16.95,4,25.42s1.51,17.18,2.22,25.74h53.74c-.18-1-.27-1.75-.45-2.48A43.33,43.33,0,0,0,380,254.64c-6-8.48-13.77-15-22.51-20.38A142.14,142.14,0,0,0,327.15,220.3ZM123.27,271.49h54a268.53,268.53,0,0,1,6.28-51.18c-.92.27-1.52.42-2.1.61a134.29,134.29,0,0,0-27.33,12.59c-9.74,6-18.52,13-24.81,22.76A36,36,0,0,0,123.27,271.49Zm132.66-84.1a12.47,12.47,0,1,0,12.64,12.19A12.53,12.53,0,0,0,255.93,187.39Z"/>
        <path
            d="M249.52,102.82c-15.42.1-32.55,6.21-48.43,16.27a122.39,122.39,0,0,0-24.29,20.12,5.15,5.15,0,0,1-7.31.58,5.24,5.24,0,0,1-.36-7.51,122.9,122.9,0,0,1,20.09-17.68A121.16,121.16,0,0,1,227.2,96a93.54,93.54,0,0,1,53.05.48c16.33,4.9,30.61,13.45,43.57,24.33,4.22,3.54,8.24,7.34,12.26,11.11a5,5,0,0,1,1.28,6.11,4.81,4.81,0,0,1-5.31,2.87,7.74,7.74,0,0,1-3.54-2c-8.94-8.7-18.48-16.6-29.3-22.89C285,107.79,269.75,102.8,249.52,102.82Z"/>
        <path
            d="M321.17,149.39c-.08,3.23-1.14,4.82-3.09,5.64a5.23,5.23,0,0,1-5.81-1.08c-5.22-4.51-10.28-9.26-15.83-13.34a71.62,71.62,0,0,0-35.77-14.19,62.11,62.11,0,0,0-26.8,3.37c-14.06,4.91-26,13.12-36.23,23.79a5.49,5.49,0,0,1-6.28,1.44,5,5,0,0,1-2.81-5.34,7.08,7.08,0,0,1,1.65-3.29c14.5-15.19,31.65-25.83,52.57-29.46,17.33-3,33.69.32,49.13,8.6a116.77,116.77,0,0,1,26.8,20.27A19.23,19.23,0,0,1,321.17,149.39Z"/>
        <path
            d="M303.34,164.54c-.4,2.46-1.44,4.08-3.47,5a5,5,0,0,1-5.78-1.13c-2.39-2.14-4.67-4.41-7.18-6.41-8.21-6.57-17.29-11.27-28-12.18-11.45-1-21.68,2.53-30.94,8.93a119.18,119.18,0,0,0-11.2,9.41c-2.4,2.15-5.3,2.45-7.49.41a5,5,0,0,1-.16-7.31A69.41,69.41,0,0,1,233.52,144a55.07,55.07,0,0,1,21.11-4.61,54.06,54.06,0,0,1,24.83,5.71,79.05,79.05,0,0,1,21.81,16A16.52,16.52,0,0,1,303.34,164.54Z"/>
        <path
            d="M254.05,160.91c14.62.12,24.33,5.46,32.94,13.32.77.7,1.54,1.42,2.26,2.18a5.14,5.14,0,0,1,0,7.47c-2,2-5,1.74-7.38-.23-3.44-2.84-6.78-5.91-10.58-8.15-11.16-6.59-22.19-5.34-32.73,1.64a64.21,64.21,0,0,0-7.68,6.44c-2.21,2-5.24,2.31-7.37.43a5,5,0,0,1-.35-7.33C232.24,167.05,243.11,161.12,254.05,160.91Z"/>
    </g>
</svg>
