<svg id="Capa_1" data-name="Capa 1" xmlns="http://www.w3.org/2000/svg" viewBox="0 0 512 512">
    <defs>
        <style>
            .cls-1,.cls-2{fill:none;stroke-miterlimit:10;stroke-width:5px;}.cls-1{stroke:#f4b207;}.cls-2{stroke:#00938f;}
        </style>
    </defs>
    <g id="Capa_2" data-name="Capa 2">
        <path class="cls-1"
              d="M445.8,99.5A245.07,245.07,0,0,1,502,256c0,135.9-110.1,246-246,246A244.83,244.83,0,0,1,96.6,443.3"/>
        <path class="cls-2"
              d="M67.9,414.5A245,245,0,0,1,10,256C10,120.1,120.1,10,256,10A245.07,245.07,0,0,1,412.5,66.2"/>
        <path d="M430.1,89.1a7.05,7.05,0,0,1-5-12l.1-.1a7,7,0,0,1,9.9,9.9l-.1.1A6.31,6.31,0,0,1,430.1,89.1Z"/>
        <path d="M82,437.2a7.05,7.05,0,0,1-5-12l.1-.1A7,7,0,1,1,87,435l-.1.1A6.66,6.66,0,0,1,82,437.2Z"/>
    </g>
    <g id="XdNlqo">
        <path
            d="M261.54,367.55h-11c-1,5.57-3.56,9.74-9.45,11-5,1.05-10.28-1-12.39-5.63-5-10.91-9.67-22-14.58-33.19,1-.45,1.66-.81,2.39-1.11,6.41-2.6,7.29-4.1,6-10.85a4.12,4.12,0,0,0-1.8-2.48c-22.57-12.71-36-32-41.47-57.12a9.87,9.87,0,0,0-.71-1.34c-4.08,0-8.49.11-12.89,0a21.82,21.82,0,0,1-21.26-21.54c-.11-12.29,9.09-22.23,21.11-22.68,3.9-.15,7.81,0,12.47,0,0-2-.09-3.77,0-5.51.5-8.48-.06-17.21,1.79-25.4,5-22,18.93-36.49,40.05-44.17,1.56-.57,3.15-1.09,4.72-1.65.11,0,.19-.19.29-.29-4.2-19-.13-32,12.61-40.42a33.62,33.62,0,0,1,37.87.46c12.44,8.77,16.36,21.9,11.86,40.11,37.51,11.84,50.19,39.21,46.6,76.85,4.15,0,7.58,0,11,0,12.29.06,22,8.59,22.85,20.07.94,12.35-6.85,22-19.4,24.16-.8.13-1.59.37-2.54.6-.17,2.9-.21,5.68-.53,8.43A27.77,27.77,0,0,1,324,299.7a11.19,11.19,0,0,0-5.66,3.54c-7.12,9-15.49,16.6-25.82,21.61-4.59,2.23-2.63,5.79-3.12,8.94s2.14,3.16,3.92,3.92c3.33,1.43,6.72,2.73,10.56,4.27-7,11.08-13.64,22-20.8,32.66-2.69,4-7.33,4.84-12.08,3.91s-7.6-3.86-8.93-8.4C261.88,369.36,261.76,368.55,261.54,367.55Zm19.82-172.2c-.93,1-2.38,2.69-4,4.22-12.94,12.37-28.23,20.24-46.08,21.83-12.35,1.1-24.84.65-37.27.88-1.62,0-3.25,0-5.29,0,0,10.33-.55,20.12.17,29.82.62,8.42,1.59,17.1,4.26,25,15.75,46.92,73.14,61.3,109,27.62,1.14-1.07,2.12-2.31,3.92-4.29-9.29,0-17.35.08-25.41-.05-2.41,0-3.39,1.22-4.92,2.85-2.85,3-6.25,6.82-10,7.51a59.14,59.14,0,0,1-19.91.1c-7.81-1.24-13-9.53-12.06-17.29,1-8.55,7.46-14.79,15.8-15.05,3.91-.12,7.83-.05,11.74,0,6.61,0,11.34,3.13,14.84,8.65a5.81,5.81,0,0,0,4.1,2.38q15.51.3,31,0c1.41,0,3.6-1.29,4.06-2.5,2.56-6.76,6.06-13.55,6.68-20.56,1.25-14,.89-28.17.95-42.26,0-.93-1.9-2.45-3.12-2.7-7.64-1.54-15.09-3.86-21-8.85C292.78,207.53,287.46,201.44,281.36,195.35ZM233.81,330.74c-1.06,10.34,3.38,18.91,11.66,23.37a22.43,22.43,0,0,0,24.73-2.44c6.36-5.3,9.62-13.93,7.52-20.5A79.39,79.39,0,0,1,233.81,330.74Zm100.54-97v22.09c1.51.14,2.75.35,4,.34a75.72,75.72,0,0,0,8.79-.29,11.22,11.22,0,0,0,9.64-10.53c.29-5.53-3.31-10.71-8.87-11.49C343.56,233.28,339.07,233.77,334.35,233.77Zm-156.57,0c-4.86,0-9.34-.47-13.67.12-5.26.71-8.84,5.5-8.88,10.64,0,5.4,3.55,10.46,8.84,11.16,4.45.59,9.05.13,13.71.13Zm151.61,50.09c4.63-3.75,6.44-11.23,4.08-16.09Z"/>
        <path
            d="M203.38,343.78c4.31,9.89,9.06,19.26,12.51,29.08,6.1,17.41,25.35,23.59,40.22,10,4.64,4.44,10.12,7.2,16.71,7.41,9.14.29,16.27-3.28,21.18-11,6.85-10.85,13.64-21.74,20.41-32.52,17.76,3.42,30.52,19.29,31,38.44.17,6.84.08,13.69,0,20.54-.05,4.79-1.77,6.5-6.59,6.77-1.67.09-3.35,0-5,0H176.11c-8.35,0-9.51-1.07-9.5-9.35,0-7.41-.31-14.86.39-22.2,1.37-14.32,8.88-24.75,21.79-31.1C193.39,347.58,198.27,345.88,203.38,343.78Z"/>
        <path
            d="M278.63,244.73c0-1.95-.1-3.9,0-5.83a5,5,0,0,1,5-5.1c3.06-.2,5.29,1.51,5.55,4.49a75,75,0,0,1,0,12.89c-.26,3-2.65,4.59-5.61,4.41s-4.94-1.77-5-5c0-1.94,0-3.88,0-5.82Z"/>
        <path
            d="M233.38,244.62c0,2.09.12,4.18,0,6.25-.23,3.22-2.44,4.72-5.32,4.73s-5.15-1.65-5.34-4.73a99.2,99.2,0,0,1,0-12.07,4.93,4.93,0,0,1,5.53-5c3.2.14,5.06,2.08,5.16,5.4C233.43,241,233.38,242.82,233.38,244.62Z"/>
    </g>
</svg>
