<svg id="Capa_1" data-name="Capa 1" xmlns="http://www.w3.org/2000/svg" viewBox="0 0 512 512">
    <defs>
        <style>
            .cls-1,.cls-2{fill:none;stroke-miterlimit:10;stroke-width:5px;}.cls-1{stroke:#f4b207;}.cls-2{stroke:#00938f;}
        </style>
    </defs>
    <g id="Capa_2" data-name="Capa 2">
        <path class="cls-1"
              d="M445.8,99.5A245.07,245.07,0,0,1,502,256c0,135.9-110.1,246-246,246A244.83,244.83,0,0,1,96.6,443.3"/>
        <path class="cls-2"
              d="M67.9,414.5A245,245,0,0,1,10,256C10,120.1,120.1,10,256,10A245.07,245.07,0,0,1,412.5,66.2"/>
        <path d="M430.1,89.1a7.05,7.05,0,0,1-5-12l.1-.1a7,7,0,0,1,9.9,9.9l-.1.1A6.31,6.31,0,0,1,430.1,89.1Z"/>
        <path d="M82,437.2a7.05,7.05,0,0,1-5-12l.1-.1A7,7,0,1,1,87,435l-.1.1A6.66,6.66,0,0,1,82,437.2Z"/>
    </g>
    <path
        d="M274.71,397.58H146.86a16.1,16.1,0,0,1-16.08-16.08v-251a16.1,16.1,0,0,1,16.08-16.08H274.71a16.1,16.1,0,0,1,16.08,16.08v99.79h-7.93V130.5a8.15,8.15,0,0,0-8.15-8.14H146.86a8.16,8.16,0,0,0-8.15,8.14v251a8.16,8.16,0,0,0,8.15,8.14H274.71a8.15,8.15,0,0,0,8.15-8.14V244.74h7.93V381.5A16.1,16.1,0,0,1,274.71,397.58Z"/>
    <rect x="134.75" y="148.99" width="152.08" height="7.94"/>
    <rect x="208.55" y="218.2" width="7.94" height="37.8"/>
    <path
        d="M358.33,248.52H208.55v-22.2H358.33a11.1,11.1,0,1,1,0,22.2Zm-141.85-7.94H358.33a3.16,3.16,0,1,0,0-6.32H216.48Z"/>
    <path
        d="M362.55,234.26H299l29.58-35.16h43.07A9.51,9.51,0,0,1,379,214.74Zm-46.46-7.94h42.77l14-16.69a1.58,1.58,0,0,0-1.21-2.59H332.31Z"/>
    <path
        d="M371.69,275.74H328.62L299,240.58h63.51L379,260.1a9.51,9.51,0,0,1-7.28,15.64Zm-39.38-7.94h39.38a1.5,1.5,0,0,0,1.43-.91,1.51,1.51,0,0,0-.22-1.68l-14-16.69H316.09Z"/>
</svg>
