<svg id="Capa_1" data-name="Capa 1" xmlns="http://www.w3.org/2000/svg" viewBox="0 0 512 512">
    <defs>
        <style>
            .cls-1,.cls-2{fill:none;stroke-miterlimit:10;stroke-width:5px;}.cls-1{stroke:#f4b207;}.cls-2{stroke:#00938f;}.cls-3{fill:#ffd347;}.cls-4{fill:#84afb4;}
        </style>
    </defs>
    <g id="Capa_2" data-name="Capa 2">
        <path class="cls-1"
              d="M445.8,99.5A245.07,245.07,0,0,1,502,256c0,135.9-110.1,246-246,246A244.83,244.83,0,0,1,96.6,443.3"/>
        <path class="cls-2"
              d="M67.9,414.5A245,245,0,0,1,10,256C10,120.1,120.1,10,256,10A245.07,245.07,0,0,1,412.5,66.2"/>
        <path d="M430.1,89.1a7.05,7.05,0,0,1-5-12l.1-.1a7,7,0,0,1,9.9,9.9l-.1.1A6.31,6.31,0,0,1,430.1,89.1Z"/>
        <path d="M82,437.2a7.05,7.05,0,0,1-5-12l.1-.1A7,7,0,1,1,87,435l-.1.1A6.66,6.66,0,0,1,82,437.2Z"/>
    </g>
    <g id="_97n50F" data-name="97n50F">
        <path
            d="M208.17,397.6A93.79,93.79,0,0,1,114.47,304c0-51.51,42.19-93.62,93.75-93.51s93.4,42,93.33,93.27C301.47,355.72,259.77,397.61,208.17,397.6Zm-.57-17.41c42,.15,76.44-33.72,76.63-75.21a76.14,76.14,0,0,0-75.71-77.11c-41.89-.29-76.43,33.75-76.61,75.22C131.73,345.8,165.34,380,207.6,380.19Z"/>
        <path
            d="M327.32,123.12H324.2q-51.22,0-102.46,0c-15.84,0-27.36,11.57-27.39,27.46q-.06,24.31-.1,48.64v3.11L186,203.87c-.07-.72-.19-1.33-.19-1.94,0-17.53-.1-35.06,0-52.58a35.05,35.05,0,0,1,35.2-34.9c36.29,0,72.58,0,108.87,0A8.06,8.06,0,0,1,336,117q29.49,29.51,59.09,58.91a7.75,7.75,0,0,1,2.44,5.9q-.06,90,0,180c0,20.27-15.64,35.78-35.89,35.78q-53.94,0-107.89,0h-2.93c5.21-3,9.91-5.78,14.67-8.43a5.48,5.48,0,0,1,2.42-.19l93.33-.07c16.22,0,27.65-11.46,27.65-27.69V187.89c0-3.47,0-3.47-3.43-3.48-7.49,0-15,.05-22.47,0-20.18-.15-35.53-15.57-35.61-35.78,0-7.49,0-15,0-22.46Zm8.66,6.43c0,6.93-.05,13.31,0,19.7a26.48,26.48,0,0,0,26.3,26.48c5.91.08,11.84,0,17.76,0a13.78,13.78,0,0,0,1.67-.18Z"/>
        <path
            d="M357.61,221.18v8.36a17.17,17.17,0,0,1-1.87.19q-37.53,0-75.05,0a4.3,4.3,0,0,1-2.52-.61c-3.13-2.5-6.14-5.14-9.41-7.92Z"/>
        <path
            d="M357.58,353.5H298c1.36-2.8,2.58-5.43,3.93-8,.18-.34,1-.5,1.49-.5q26.74,0,53.49,0a3.19,3.19,0,0,1,.66.22Z"/>
        <path
            d="M357.66,262.56v8.29c-1.23.06-2.35.16-3.46.16q-23.28,0-46.54,0c-1.71,0-2.87-.35-3.37-2.29a60.71,60.71,0,0,0-2.33-6.18Z"/>
        <path d="M357.79,303.78c0,2.38-.08,4.51,0,6.63.07,1.58-.64,1.94-2.07,1.92-4.52-.07-9,0-13.56,0H310.61v-8.52Z"/>
        <path class="cls-3"
              d="M336,129.55l45.74,46a13.78,13.78,0,0,1-1.67.18c-5.92,0-11.85,0-17.76,0A26.48,26.48,0,0,1,336,149.25C335.93,142.86,336,136.48,336,129.55Z"/>
        <path class="cls-4"
              d="M209.28,313.72c-1.58,2.5-3.48,4.11-6.36,3.75-3.2-.39-5.14-2.84-5-6.51.06-2.44-.14-4.33-2.81-5.54-3-1.35-4.09-3.74-3.68-6.31s2.15-4.14,5.48-4.86a10.06,10.06,0,0,0,1-.34v-2.82q0-17.88,0-35.78c0-2.66.69-4.9,3.2-6.18,4.06-2.08,8.32.81,8.36,5.72.05,7,0,14,0,21,0,7.24.12,14.48-.07,21.72-.05,2.34.81,3.48,2.73,4.57q18.33,10.44,36.53,21.11a9.53,9.53,0,0,1,3.72,4c1,2.15.22,4.39-1.7,6a5.51,5.51,0,0,1-6.67.52c-4.09-2.29-8.12-4.69-12.18-7Z"/>
    </g>
</svg>
