<svg id="Capa_1" data-name="Capa 1" xmlns="http://www.w3.org/2000/svg" viewBox="0 0 512 512">
    <defs>
        <style>
            .cls-1,.cls-2{fill:none;stroke-miterlimit:10;stroke-width:5px;}.cls-1{stroke:#f4b207;}.cls-2{stroke:#00938f;}.cls-3{fill:#84afb4;}
        </style>
    </defs>
    <g id="Capa_2" data-name="Capa 2">
        <path class="cls-1"
              d="M445.8,99.5A245.07,245.07,0,0,1,502,256c0,135.9-110.1,246-246,246A244.83,244.83,0,0,1,96.6,443.3"/>
        <path class="cls-2"
              d="M67.9,414.5A245,245,0,0,1,10,256C10,120.1,120.1,10,256,10A245.07,245.07,0,0,1,412.5,66.2"/>
        <path d="M430.1,89.1a7.05,7.05,0,0,1-5-12l.1-.1a7,7,0,0,1,9.9,9.9l-.1.1A6.31,6.31,0,0,1,430.1,89.1Z"/>
        <path d="M82,437.2a7.05,7.05,0,0,1-5-12l.1-.1A7,7,0,1,1,87,435l-.1.1A6.66,6.66,0,0,1,82,437.2Z"/>
    </g>
    <g id="kWbhZB">
        <path
            d="M255.65,345.31a89.19,89.19,0,1,1,.53-178.38c46.38.12,86.13,36.11,88.66,83.76C347.91,308.36,300.73,346.12,255.65,345.31Zm6.21-123.65c10,1.43,15.82,6,16.91,13.1.66,4.26,2.61,6.86,7.17,6.48,3.93-.32,6-3.72,5.28-8.61-1.62-10.66-8.3-17.67-18-20.82-7.77-2.53-13.37-4.85-11.57-14.62.59-3.24-2.44-5.35-5.91-5.37s-5.64,1.91-6.11,5.36a24.92,24.92,0,0,0-.09,6c.41,3.7-.55,5.51-4.71,6.34-8.38,1.65-15.62,5.72-20.64,12.94-7.21,10.38-5,23.3,5.6,30,5,3.15,10.76,5,16.07,7.61,1.49.74,3.62,2.29,3.66,3.53.32,8.94.17,17.89.17,26.89-9.48-.81-15-5.24-17.24-13.65-1-3.64-2.93-6.17-6.87-5.87s-5.21,3.38-5.07,6.79a23.49,23.49,0,0,0,1.57,8.17c3.1,7.29,8.84,12.62,16.2,14.59,8.16,2.18,13.25,5,11.5,14.65-.58,3.19,2.56,5.35,6,5.31s5.61-2,6-5.47a24.93,24.93,0,0,0,.07-6c-.44-3.77.73-5.4,4.79-6.29,9.57-2.11,17.72-6.8,22.34-16,4.4-8.75,2.85-19-4.89-24.76-5.46-4.05-12.16-6.41-18.23-9.67-1.51-.82-3.85-2.15-3.9-3.32C261.72,240,261.86,231.06,261.86,221.66Z"/>
        <path
            d="M129.53,258.66a122.09,122.09,0,0,0,14,57.08c24.43,47,73.94,73.39,126.75,67.63,6.82-.75,12,2.9,12.76,8.95.79,6.38-3.35,11.05-10.51,11.86C194.24,413,122.9,359,110.54,281.56c-1.2-7.52-1.85-15.12-2.79-23.06-4.37,0-9,.16-13.57-.09-1.66-.09-4-.78-4.67-2-.59-1,.35-3.38,1.25-4.73,7.82-11.8,15.76-23.51,23.71-35.22,3.39-5,4.94-5,8.31-.05q11.39,16.73,22.73,33.46a20.37,20.37,0,0,1,1.8,3c1.71,3.74.47,5.67-3.72,5.74C139.14,258.71,134.68,258.66,129.53,258.66Z"/>
        <path
            d="M403.38,254c5.07,0,10-.11,15,0,4.27.12,5.49,2.25,3.14,5.75q-12.5,18.66-25.25,37.13c-2.42,3.5-4.39,3.4-6.87-.2-8.29-12.05-16.56-24.12-24.69-36.28-.89-1.33-1.59-3.73-1-4.86s3-1.71,4.63-1.8c4.27-.24,8.56-.08,13.18-.08.92-15.27-2.19-29.64-7.45-43.56a126.16,126.16,0,0,0-131.9-81.31c-.82.09-1.66.17-2.49.19-6.19.13-10.87-3.89-11.22-9.64-.37-5.94,3.44-10.35,9.67-11.21,75.85-10.41,150.61,45,162.54,120.69C402,237,402.47,245.27,403.38,254Z"/>
        <path class="cls-3"
              d="M197.15,120.26a10.43,10.43,0,0,1,.61,20.84A10.47,10.47,0,0,1,186.89,131,10.63,10.63,0,0,1,197.15,120.26Z"/>
        <path class="cls-3" d="M385,326.43a10.38,10.38,0,0,1-20.74.74,10.38,10.38,0,1,1,20.74-.74Z"/>
        <path class="cls-3"
              d="M348.5,368.85a10.64,10.64,0,0,1-10.7-10.23,10.44,10.44,0,0,1,20.87-.49A10.55,10.55,0,0,1,348.5,368.85Z"/>
        <path class="cls-3"
              d="M163.2,164.24a10.37,10.37,0,0,1-10.37-10.56,10.58,10.58,0,0,1,10.79-10.23,10.47,10.47,0,0,1,10.08,10.39A10.3,10.3,0,0,1,163.2,164.24Z"/>
        <path class="cls-3" d="M137,175.16a10.43,10.43,0,0,1,.05,20.86,10.43,10.43,0,1,1-.05-20.86Z"/>
        <path class="cls-3"
              d="M324.63,381.52A10.6,10.6,0,0,1,314.11,392a10.45,10.45,0,0,1-.07-20.89A10.57,10.57,0,0,1,324.63,381.52Z"/>
        <path
            d="M262.13,263.14c4.93,2.68,9.39,4.5,13.14,7.29,4.7,3.51,4.86,8.49,1,13.08-3.55,4.26-8.3,6.33-14.18,7.4Z"/>
        <path
            d="M249.35,221.37v26.68a23.7,23.7,0,0,1-14.41-7.45c-3.2-3.4-3.06-7.84.19-11.76C238.68,224.58,243.42,222.43,249.35,221.37Z"/>
    </g>
</svg>
